<svg xmlns="http://www.w3.org/2000/svg" width="92" height="92" viewBox="0 0 92 92">
    <g fill="none" fill-rule="nonzero">
        <g transform="translate(8 4)">
            <path fill="#604634" d="M24.16 17.32s-.605 2.378-2.175 2.378c0 0 2.804.815 3.073-.838.27-1.652-1.727 1.744-.606 4.46 0 0 1.01-3.056 1.728-2.988 0 0-1.503 4.347 1.413 7.97 0 0 1.346-1.132 1.57-2.264 0 0 .225 2.264 1.57 3.622l1.57-2.49s-4.194-11.547-8.142-9.85zm20.213-.928s1.211 2.083 2.468 1.653c0 0-1.952 1.54-2.692.046-.74-1.495 1.906 1.132 1.884 4.03 0 0-1.75-2.604-2.31-2.355 0 0 2.557 3.713 1.435 7.925 0 0-1.413-.725-1.952-1.721 0 0 .561 2.196-.067 3.849l-2.019-1.947s-.448-12.046 3.23-11.502l.023.022z"/>
            <path fill="#2B2F47" d="M57.609 34.755s2.467-2.355 17.318-1.698c0 0-1.189 6.249-16.376 8.513l-.942-6.815z"/>
            <path fill="#ED6964" d="M27.369 36.226l-10.5 4.076-4.486 5.524 8.031 5.525 3.23-.68 5.474 25.586h22.254l-.964-20.015.964-3.94v-6.793l6.775-2.943-1.279-9.124-13.976 2.898-5.608 12.837z"/>
            <path fill="#2B2F47" d="M12.9 47.208C12.584 47.887 0 71.66 0 71.66s13.953-6.113 18.62-21.124l-5.72-3.328z"/>
            <path fill="#2B2F47" d="M0 71.638s8.076-6.181 18.71 2.943c0 0 2.243 2.944-5.833 2.581C4.8 76.8 0 71.638 0 71.638z"/>
            <path fill="#EDAE7A" d="M18.71 74.558h8.075l2.468 7.834-9.265 1.585-1.256-9.441z"/>
            <path fill="#2B2F47" d="M73.357 35.32S63.487 30 59.852 16.529c0 0-.314-10.256 15.075 16.529l-1.57 2.264z"/>
            <path fill="#000102" d="M12.9 47.208l-1.347 2.58 6.124 3.261 1.032-2.604-5.832-3.283z" opacity=".33"/>
            <path fill="#000102" d="M23.645 50.717l2.58-.68 2.87 27.352-5.473-26.717z" opacity=".09"/>
            <path fill="#EDAE7A" d="M61.086 21.102s-5.788-.68-5.945-.974l-2.602-4.302 2.243-3.984 2.243.566-.493-3.306s.538-2.219.987-2.106c.449.113 2.198 2.446 2.198 2.446l.068 2.626 3.028 3.623-1.727 5.41zM27.144 75.713c.27.793 5.452 2.106 5.452 2.106l-1.302 1.472-4.823-.499.673-3.079z"/>
            <g fill="#2B2F47">
                <path d="M31.945 62.264l.897-.113c.045-.045.112-.023.157.023.023.022.023.068.023.09l.067.362c.023.068 0 .114-.067.159h-.045l-2.535.453c-.045.022-.112 0-.157-.046a.07.07 0 0 1 0-.09l-.112-.77a.792.792 0 0 1 .134-.634.82.82 0 0 1 .606-.362.897.897 0 0 1 .673.136c.202.136.337.34.359.566v.226zm-.628.136l-.045-.226a.17.17 0 0 0-.112-.159c-.045-.045-.112-.045-.18-.045-.067.022-.134.045-.157.113-.022.045-.045.09-.045.136l.045.226.494-.045zm.987-2.083l.09-.725c-.023-.067.022-.113.067-.135h.09l.381.045c.067-.023.112.023.135.068v.09l-.157 1.246c0 .068-.045.113-.113.113h-.044l-2.558-.294c-.067.022-.112-.023-.134-.068v-.091l.044-.385c0-.068.045-.113.113-.113h.044l2.042.249zm.673-2.015l.292.34c.067.067.067.158 0 .226l-.225.362c-.022.068-.067.068-.112.045h-.045l-1.75-2.264a.139.139 0 0 1 0-.18l.113-.227a.203.203 0 0 1 .157-.068l2.781.385h.045c.067.045.067.09 0 .158l-.18.385c-.022.068-.111.113-.179.09h-.448l-.45.748zm-.74-.974l.336.453.224-.385-.56-.068zm1.906-.883l.135-.271.045-.046a.142.142 0 0 1 .134 0c.09 0 .158-.022.225-.09a.206.206 0 0 0 .067-.159c0-.045-.022-.113-.067-.136-.067-.068-.135-.09-.225-.068-.067.023-.157.046-.224.068-.493.159-.875.068-1.121-.226a.814.814 0 0 1-.18-.68.914.914 0 0 1 .897-.724c.09 0 .157.023.225.068a.11.11 0 0 1 0 .159l-.18.362c0 .023-.022.045-.045.068h-.09a.123.123 0 0 0-.112.068.174.174 0 0 0-.044.113c0 .045.022.09.044.113a.253.253 0 0 0 .18.068.79.79 0 0 0 .224-.045h.045c.18-.045.36-.068.539-.045a.794.794 0 0 1 .56.316c.157.204.202.43.18.68a.758.758 0 0 1-.314.543c-.202.181-.471.25-.74.181-.068-.022-.135-.045-.18-.09a.11.11 0 0 1 0-.159l.022-.068zm1.66-2.92l.808 1.901c.045.046.023.114-.022.159-.023 0-.023.023-.045.023l-.36.158c-.044.045-.111.023-.156-.023 0-.022-.023-.022-.023-.045l-.83-1.902-.448.181c-.045.023-.112 0-.157-.045v-.023l-.157-.34c-.045-.044-.023-.112.022-.158.022 0 .022-.022.045-.022l1.436-.634a.108.108 0 0 1 .157 0s.022.022.022.045l.157.362c.045.046.023.113-.022.159-.023.022-.068.022-.09.022l-.337.182zm1.077-.997l.36-.068c.044-.045.111-.022.156.023.023.023.023.068.023.09l.448 2.536c.023.068 0 .114-.067.159h-.022l-.36.113c-.044.045-.111.023-.156-.023-.023-.022-.023-.067-.023-.09l-.493-2.536c-.045-.045-.023-.113.022-.158.023-.023.067-.023.09-.023l.022-.023zm3.567.317l-.269.295c-.022.022-.045.045-.09.045-.022 0-.045-.023-.067-.045a.81.81 0 0 0-.381-.159c-.427-.045-.808.294-.853.725v.045c-.022.204.023.43.157.589.135.158.337.249.539.271.134 0 .269-.022.403-.09.045-.046.113-.023.157.022 0 .023.023.023.023.046l.224.34c.023.045.023.067 0 .113 0 .045-.022.067-.045.09-.09.045-.18.09-.291.113a1.801 1.801 0 0 1-.494 0c-.807.068-1.503-.543-1.57-1.358a1.468 1.468 0 0 1 1.346-1.585.983.983 0 0 1 .448.045c.247.023.472.09.673.227.113.068.157.135.157.18 0 .046-.022.069-.067.091zm1.503 2.627l.292.045h.067c.023.045.045.09.045.136a.352.352 0 0 0 .135.181c.044.045.09.045.157.045a.203.203 0 0 0 .157-.068.207.207 0 0 0 0-.226c-.023-.068-.045-.159-.09-.227-.247-.452-.27-.837-.045-1.132a.778.778 0 0 1 .583-.362.906.906 0 0 1 .965.68c.022.067 0 .158-.045.226-.022.045-.09.068-.134.068l-.404-.09c-.023 0-.045-.023-.068-.046v-.09c-.022-.046-.044-.091-.09-.114-.044-.045-.09-.068-.156-.045-.045.022-.09.045-.113.09a.252.252 0 0 0 0 .182c.023.067.068.113.09.18v.069c.112.158.18.34.225.543a.773.773 0 0 1-.225.611.884.884 0 0 1-.56.385.785.785 0 0 1-.629-.158.81.81 0 0 1-.336-.68.39.39 0 0 1 0-.226c.045-.068.112-.09.18-.045v.068zm4.083.973c.202.317.27.725.18 1.087a1.465 1.465 0 0 1-1.728 1.155c-.022 0-.045 0-.067-.023-.763-.181-1.234-.973-1.054-1.743.157-.793.942-1.313 1.727-1.132h.022c.382.09.696.34.898.679l.022-.023zm-.56.34c-.113-.159-.27-.294-.45-.34a.82.82 0 0 0-.986.589v.023c-.068.407.179.815.583.905a.756.756 0 0 0 .583-.09c.18-.114.337-.295.381-.498a.775.775 0 0 0-.09-.59h-.022zM47.2 60.61l-1.885.295a.756.756 0 0 1-.673-.227 1.07 1.07 0 0 1-.112-1.358.706.706 0 0 1 .516-.317l1.84-.295c.044-.045.112-.022.157.023.022.023.022.068.022.09l.045.363c.022.068 0 .113-.067.158h-.045l-1.795.317c-.09.023-.157.068-.18.159a.39.39 0 0 0 0 .226c0 .09.023.159.09.227a.202.202 0 0 0 .225 0L47.132 60c.068-.023.112.023.135.09v.023l.067.385c.023.045 0 .113-.045.159a.068.068 0 0 1-.09 0v-.046zm-1.75 1.427l-.898-.159c-.067.023-.112-.022-.134-.068v-.09l.067-.385c-.022-.068.023-.113.067-.136h.09l2.535.453c.067 0 .112.045.112.113v.045l-.134.77a.831.831 0 0 1-.337.566.886.886 0 0 1-.673.113.922.922 0 0 1-.605-.385c-.135-.18-.18-.407-.135-.61l.045-.227zm.673.113l-.068.226c-.022.068.023.136.068.181.045.046.09.068.134.068.068.023.135 0 .18-.045.045-.023.067-.068.09-.113v-.272l-.404-.045zM32.035 65.57l.269.136c.022 0 .045.022.067.045a.146.146 0 0 1 0 .136c0 .09.023.158.09.226.045.045.09.068.157.068.045 0 .09-.023.135-.045a.216.216 0 0 0 .09-.227.811.811 0 0 0-.046-.226c-.157-.475-.067-.838.225-1.087a.835.835 0 0 1 .628-.226.821.821 0 0 1 .56.34.916.916 0 0 1 .18.633c0 .091-.022.159-.067.227a.108.108 0 0 1-.157 0l-.36-.227h-.044c-.022-.045-.022-.068 0-.113a.125.125 0 0 0-.067-.113c-.023-.045-.09-.068-.135-.068a.317.317 0 0 0-.134.045c-.045.046-.068.114-.045.181 0 .068.022.159.045.227v.045c.044.181.067.362.067.544a.758.758 0 0 1-.314.543.906.906 0 0 1-.673.226.794.794 0 0 1-.561-.317c-.18-.203-.247-.475-.18-.747 0-.09.045-.158.09-.226a.136.136 0 0 1 .18 0zm4.374 1.041l-.987 1.63a.761.761 0 0 1-.673.385 1.066 1.066 0 0 1-1.077-.77.832.832 0 0 1 .09-.61l.987-1.654c-.022-.067.023-.113.09-.135.067-.023.112.022.134.09l.292.227c.067.022.09.09.067.135 0 .023-.022.023-.022.046l-.942 1.54a.207.207 0 0 0 0 .226c.022.09.067.18.134.226a.246.246 0 0 0 .18 0 .203.203 0 0 0 .18-.09l.941-1.585c0-.068.045-.114.113-.114.067 0 .112.046.112.114l.291.18c.068.023.09.069.09.137 0 .022 0 .045-.022.045l.022-.023zm1.503 1.902l.404 1.132v.068c0 .023-.022.023-.09 0l-.448-.045c-.068 0-.135-.068-.157-.136l-.382-1.064h-.09l-.134.906c.022.068-.023.113-.067.135h-.09l-.382-.045c-.067 0-.112-.045-.112-.113v-.045l.449-2.49c-.045-.046-.022-.114.022-.16a.142.142 0 0 1 .135 0l.808.136a.821.821 0 0 1 .56.34c.135.204.18.453.135.68a.876.876 0 0 1-.538.679l-.023.022zm-.65-.656l.291.045c.112.023.247-.045.27-.181v-.046a.252.252 0 0 0 0-.18.212.212 0 0 0-.225-.091l-.224-.046-.112.499zm2.58.656l.157.974c.022.068-.023.113-.09.136h-.023l-.381.045c-.067.023-.112-.023-.135-.09v-.023l-.448-2.536c-.023-.068.022-.113.09-.136h.044l1.346-.226c.068-.023.112 0 .157.068v.045l.068.34c.022.067 0 .113-.068.158h-.045l-.83.158.068.385.852-.136c.045-.022.112 0 .157.046a.07.07 0 0 1 0 .09l.068.385c.022.068 0 .113-.068.159h-.045l-.875.158zm2.063-1.38l.74-.408c.023-.068.068-.114.135-.091.068.023.112.068.09.136l.157.317a.11.11 0 0 1 0 .158s-.022.023-.045.023l-.74.453.224.362.74-.408a.108.108 0 0 1 .158 0s.022.023.022.046l.18.34c.044.045.067.113.022.158l-.023.023-1.211.679a.108.108 0 0 1-.157 0s-.022-.023-.022-.046l-1.257-2.264c-.067-.022-.112-.068-.09-.136.023-.067.068-.113.135-.09l1.19-.68c.044-.045.111-.022.156.023.023.023.023.046.023.068l.224.34c.045.045.022.113-.023.158-.022.023-.044.023-.067.023l-.673.408.112.407zm2.782-1.631l1.167.226h.067v.136l-.292.317c-.045.068-.134.113-.224.068l-1.077-.226-.045.09.718.634c.067 0 .112.045.112.113s-.045.114-.112.114l-.224.226c.022.068-.023.113-.09.136-.067.022-.112-.023-.135-.09l-1.951-1.654c-.068 0-.112-.045-.112-.113s.044-.113.112-.113l.493-.589a.84.84 0 0 1 .584-.317.906.906 0 0 1 .673.227c.246.204.359.52.314.838l.022-.023zm-.92.249l.18-.226c.09-.091.067-.227-.023-.317l-.022-.023c-.045-.045-.09-.045-.157-.045s-.112.045-.157.09l-.157.227.336.294zM41.726 62.989l-.224-.227v.113a.543.543 0 0 1-.225-.226c-.067-.09-.134-.181-.224-.272a2.8 2.8 0 0 0-.404-.498.892.892 0 0 0-.583-.226h-.225l-.157-.045c-.067 0-.134 0-.224-.046l-.112-.045-.27-.113-.089-.453-.18-.52c.135-.16.225-.363.292-.567a.527.527 0 0 0-.157-.498c-.022-.023-.022-.045-.045-.068a1.068 1.068 0 0 1-.224-.226l-.067-.114c-.113-.113-.225-.249-.36-.34a1.044 1.044 0 0 0-.224-.112.593.593 0 0 0-.269-.068h-.202c-.045.045-.09.045-.157.045h-.089v-.045a.459.459 0 0 0-.113-.498c-.067-.046-.18-.09-.269-.068a.45.45 0 0 0-.18.09l-.134.068c-.045.023-.045.09 0 .136v.159l.09.294s.112.136.224.136a.527.527 0 0 1-.157.158c-.022.045-.067.113-.09.159l-.269.34a2.055 2.055 0 0 0-.538.452c-.068.045-.157.09-.225.113l-.067.068h-.045c-.022.046-.067.113-.067.181a.811.811 0 0 0-.045.227s0 .045.045 0c.022.068.067.09.135.09h.044v-.045-.068-.09h.045v.068h.068v-.068c0-.227.314-.317.493-.453a.661.661 0 0 0 .27-.227c0-.068.09-.113.156-.158a.689.689 0 0 1 .337-.227l.224.136c.09.046.18.09.27.114.067 0 .134.045.179.067-.112.068-.224.136-.314.227-.135.068-.27.158-.382.272-.157.18 0 .317.09.452-.09-.022-.202-.045-.291-.068-.113-.022-.225-.045-.337-.045h-.067a.345.345 0 0 0-.337.227c.112.135.068.34-.067.452-.045.023-.067.046-.112.046.09.136.067.34-.068.453-.044.022-.09.045-.157.045-.044.136.023.272.135.362.022.023.022.045.045.068.09.09.18.159.292.226.112.068.224.114.358.159.113.068.225.113.337.136.09.022.18.022.27 0 .29.136.582.249.897.34l.785.316.112.046.224.068h.09l.224.18a.88.88 0 0 0 .561.227c.224-.023.449-.068.673-.113a1.64 1.64 0 0 0 .314-.09.387.387 0 0 1 .314-.069l-.045.114h.27l.314.09.224-.679-.314-.045zm-3.14-1.812c-.225-.09-.517-.226-.786-.271a1.958 1.958 0 0 0-.224-.363c0-.045 0-.068-.045-.09v-.068l.763-.227h.112c-.09.114-.09.272-.045.408l.359.68-.135-.069z"/>
                <path d="M38.72 65.819c-2.67 0-4.846-2.196-4.846-4.89 0-2.695 2.176-4.891 4.846-4.891s4.845 2.196 4.845 4.89a4.877 4.877 0 0 1-4.823 4.914h-.022m0-9.374c-2.445 0-4.442 2.015-4.442 4.483 0 2.468 1.997 4.483 4.442 4.483 2.445 0 4.442-2.015 4.442-4.483-.045-2.468-1.997-4.438-4.442-4.483"/>
            </g>
            <path fill="#EDAE7A" d="M40.761 27.26c-1.615 3.85 1.279 9.057 1.279 9.057l-4.8 11.91-9.288-11.91s3.522-9.057 2.871-9.057"/>
            <path fill="#2B2F47" d="M42.04 36.317l-4.8 11.91-9.288-11.91s.852-2.219 1.637-4.438c1.122 1.132 4.196 2.944 11.217 1.54.314.996.718 1.97 1.212 2.898h.022z"/>
            <path fill="#000102" d="M31.182 26.943l-1.346 4.302s7.224 2.989 10.499.09l-.224-3.169-8.929-1.223z" opacity=".09"/>
            <path fill="#EDAE7A" d="M26.337 12.068s.964 12.906 5.765 16.483c4.8 3.577 11.553.996 13.46-3.17 1.077-2.332-.897-8.332-2.827-13.29-1.615-4.076-3.23-7.427-3.23-7.427S27.975 2.4 26.359 12.091l-.022-.023z"/>
            <path fill="#000102" d="M26.763 15.532s1.032-1.675 1.032-3.283c0 0 3.813 0 4.128-4.189 0 0 4.71 4.597 10.543 3.759l-1.57-4.076-9.938-1.924-4.15 4.302-.628 2.807.583 2.604z" opacity=".09"/>
            <path fill="#EDAE7A" d="M42.04 12.068s1.57-1.29 1.907 0c.336 1.29 1.256 4.075 0 4.46-1.256.385-1.93-4.46-1.93-4.46h.023z"/>
            <path fill="#000102" d="M41.883 19.63s-4.42 1.087-5.384-2.762l5.384 2.762z" opacity=".09"/>
            <ellipse cx="31.088" cy="14.878" fill="#1E0000" rx="1.122" ry="1" transform="rotate(-100.55 31.088 14.878)"/>
            <ellipse cx="38.559" cy="12.839" fill="#1E0000" rx="1.122" ry="1" transform="rotate(-100.55 38.56 12.84)"/>
            <path fill="#D88344" d="M34.66 14.038c.336.294 8.03 4.664 7.694 4.573-.067 0-.359.136-.763.363a4.317 4.317 0 0 1-5.9-1.676 4.426 4.426 0 0 1-.381-.95l-.65-2.31z"/>
            <path fill="#FFF" d="M30.823 21.781c-.067-.317 3.814 2.264 10.252.951 0 0 1.616 2.264 0 3.238-1.615.973-8.3 3.238-10.23-4.189h-.022z"/>
            <path fill="#1E0000" d="M31.34 11.094a3.67 3.67 0 0 1-.45.385l-.448.363-.83.679a2.947 2.947 0 0 0-.628.77 1.513 1.513 0 0 0-.135.452c0 .182 0 .385.045.566a1.138 1.138 0 0 1-.359-.498 1.401 1.401 0 0 1-.045-.679c.09-.43.337-.838.673-1.132.314-.272.65-.475 1.032-.634.36-.158.74-.249 1.122-.272h.022zm9.803.272c-.382-.249-.786-.475-1.212-.68a6.225 6.225 0 0 0-1.234-.452 4.045 4.045 0 0 0-1.278-.045c-.449.068-.92.18-1.346.34a2.62 2.62 0 0 1 1.234-.861 2.907 2.907 0 0 1 1.525-.09c.494.113.987.316 1.39.633.427.295.741.702.965 1.178l-.044-.023z"/>
            <path fill="#000102" d="M30.823 21.781s4.801 2.264 10.252.951c0 0 .539.793.606 1.2 0 0-9.87 1.404-10.835-2.15h-.023z" opacity=".09"/>
            <path fill="#7F7F7F" d="M31.923 24c.201.158.403.272.628.385.224.113.448.204.673.272.47.135.942.249 1.413.317.493.09.965.135 1.458.158.224.045.449.045.718.045h.74l-.74.068h-.74a15.864 15.864 0 0 1-1.458-.136 7.27 7.27 0 0 1-1.414-.407A3.929 3.929 0 0 1 31.923 24z"/>
            <path fill="#775D46" d="M31.407 5.977s-1.862-3.396-7.695-2.219a9.57 9.57 0 0 0-1.93.612 11.7 11.7 0 0 1-3.813.973s1.189 1.653 3.634 1.02c0 0-3.05 1.765-1.794 6.905 0 0 0-2.264 1.189-2.264 0 0 2.467 3.079-.404 6.792a12.907 12.907 0 0 0 3.858-2.943s-1.84 1.585.606 5.932c0 0-1.122-5.05 1.615-4.755 0 0 6.326-8.377 4.711-10.03l.023-.023z"/>
            <path fill="#775D46" d="M29.612 4.528s4.262-5.66 10.32-1.358c0 0 2.243 2.49 3.364 1.358 0 0-.291 1.585-2.961 1.246 0 0 3.186.113 2.513 3.735 0 0-2.917.408-11.352-2.173a23.522 23.522 0 0 1-1.884-2.808z"/>
            <path fill="#000102" d="M43.296 12.453s-.404.792.36 2.355c.762 1.562 0-2.355-.382-2.355h.022z" opacity=".09"/>
            <path fill="#775D46" d="M29.836 5.208S29.163 1.132 30.958 0l-1.122 5.208z"/>
            <path fill="#2B2F47" d="M42.04 36.317l-4.8 11.91-9.288-11.91s.852-2.219 1.637-4.438c1.122 1.132 4.196 2.944 11.217 1.54.314.996.718 1.97 1.212 2.898h.022z"/>
            <path fill="#EDAE7A" d="M27.301 15.623s-3.185-.974-2.243 3.237c0 0 1.122 2.106 2.804 1.857 1.683-.25-.56-5.094-.56-5.094z"/>
            <path fill="#000102" d="M57.609 34.755l.942 6.905 2.961-.543-.897-7.472s-2.154.453-3.006 1.132v-.022z" opacity=".4"/>
            <path fill="#000102" d="M26.696 16.596s-1.302-.317-.987 1.63c.134.34.538.499.874.363.023-.023.045-.023.09-.046 0 0 .606.295 0 .634 0 0 1.885 1.585 0-2.603l.023.022z" opacity=".09"/>
        </g>
        <path fill="#70B5E8" d="M64.308 23.177V6.151c0-.226.224-.43.515-.43h.539c.852 0 1.548.588 1.548 1.29v15.283c0 .725-.696 1.29-1.548 1.29h-.539c-.291.046-.515-.158-.515-.407z"/>
        <path fill="#52A5D8" d="M65.609 22.317V7.034c0-.566-.449-1.064-1.055-1.223.202-.113.36-.045.808-.068.852 0 1.548.59 1.548 1.291v15.283c0 .725-.696 1.29-1.548 1.29-.449-.022-.606.046-.808-.067.606-.159 1.055-.657 1.055-1.223z"/>
        <g fill="#A4D9F4">
            <path d="M65.631 10.068c.18 0 .314-.113.314-.272v-.815c0-.158-.134-.272-.314-.272s-.314.114-.314.272v.838c0 .136.135.249.314.249zM65.631 12.219c.18 0 .314-.113.314-.272v-.838c0-.158-.134-.271-.314-.271s-.314.113-.314.271v.838c0 .159.135.272.314.272zM65.631 14.37c.18 0 .314-.113.314-.272v-.838c0-.158-.134-.271-.314-.271s-.314.113-.314.271v.838c0 .159.135.272.314.272z"/>
        </g>
        <path fill="#EDAE7A" d="M69.04 25.102s-5.787-.68-5.944-.974l-2.602-4.302 2.243-3.984 2.243.566.629.045s1.548.905 1.75.498c.201-.43-.427-.25-.427-.25h.65l3.209 2.99-1.75 5.41zM35.1 79.713c.269.793 5.45 2.106 5.45 2.106l-1.3 1.472-4.824-.499.673-3.079z"/>
    </g>
</svg>
