<svg xmlns="http://www.w3.org/2000/svg" width="92" height="92" viewBox="0 0 92 92">
    <g fill="none" fill-rule="evenodd">
        <g fill-rule="nonzero" transform="translate(10)">
            <path fill="#604634" d="M12.661 13.154s-1.448 1.895-2.852 1.3c0 0 2.216 1.807 3.094.419.856-1.388-2.216.903-2.216 3.768 0 0 2.062-2.358 2.677-2.027 0 0-2.985 3.327-1.734 7.69 0 0 1.646-.507 2.26-1.433 0 0-.658 2.115.044 3.856l2.348-1.63c.022 0 .593-11.965-3.62-11.943zm18.587 6.875s.307 2.335 1.602 2.424c0 0-2.348.639-2.436-.992-.11-1.63 1.294 1.74.175 4.34 0 0-.592-2.996-1.185-2.996 0 0 .9 4.297-1.69 7.646 0 0-1.009-1.19-1.118-2.292 0 0-.33 2.182-1.514 3.416l-1.098-2.512s4.126-10.973 7.242-9.078l.022.044z"/>
            <path fill="#2B2F47" d="M39.257 36.885s3.687-1.499 19.574 5.618c0 0-3.95 6.258-21.44 2.182l1.866-7.8z"/>
            <path fill="#ED6964" d="M14.022 35.475l-4.323 1.674-4.081 1.829 2.15 7.976 2.04-.903 5.926 28.38h21.768l-.856-17.562.746-4.186v-6.566l2.567-1.102-.22-8.527-10.532-.903-5.486 12.493z"/>
            <path fill="#2B2F47" d="M5.618 38.978C-7.702 51.185 7.24 66.102 7.24 66.102s.549-18.42.527-19.148l-2.15-7.976z"/>
            <path fill="#2B2F47" d="M5.618 64.383s8.601-4.958 17.796 5.156c0 0 1.821 3.129-5.969 1.763S5.618 64.383 5.618 64.383z"/>
            <path fill="#EDAE7A" d="M21.79 69.45h7.9l2.413 7.625-9.062 1.542-1.23-9.188z"/>
            <path fill="#2B2F47" d="M50.404 63.59c6.254-29.482 9.041-19.897 9.041-19.897.68 13.573-6.89 21.505-6.89 21.505l-2.15-1.608z"/>
            <path fill="#000102" d="M4.367 40.212l-1.01 1.19 2.37 7.095 2.041-1.807-2.15-7.712z" opacity=".33"/>
            <path fill="#000102" d="M9.809 46.05l2.523-.66 3.402 29.04-5.947-28.423z" opacity=".09"/>
            <path fill="#EDAE7A" d="M30.04 70.575c.264.77 5.333 2.049 5.333 2.049L34.1 74.056l-4.718-.485.659-2.996z"/>
            <path fill="#2B2F47" d="M18.498 60.814l.878-.11c.044-.045.11-.023.154.021.022.022.022.067.022.089l.066.352c.021.066 0 .11-.066.154h-.044l-2.48.441c-.044.022-.11 0-.153-.044a.067.067 0 0 1 0-.088l-.11-.75c-.044-.22 0-.44.132-.616a.802.802 0 0 1 .592-.353c.22-.044.46 0 .658.132.198.133.33.33.351.551v.22zm-.614.132l-.044-.22a.166.166 0 0 0-.11-.155c-.043-.044-.11-.044-.175-.044-.066.022-.132.044-.154.11a.314.314 0 0 0-.044.132l.044.22.483-.043zm.966-2.027l.087-.705c-.022-.067.022-.11.066-.133h.088l.373.044c.066-.022.11.022.132.067v.088l-.154 1.212c0 .066-.044.11-.11.11h-.044l-2.501-.287c-.066.022-.11-.022-.132-.066v-.088l.044-.375c0-.066.044-.11.11-.11h.044l1.997.243zm.658-1.961l.285.33c.066.066.066.154 0 .22l-.22.353c-.021.066-.065.066-.11.044h-.043l-1.712-2.203a.134.134 0 0 1 0-.177l.11-.22a.199.199 0 0 1 .154-.066l2.72.375h.045c.066.044.066.088 0 .154l-.176.374c-.022.066-.11.11-.175.089h-.44l-.438.727zm-.724-.948l.329.44.22-.374-.55-.066zm1.865-.86l.132-.264.043-.044a.14.14 0 0 1 .132 0 .281.281 0 0 0 .22-.088.2.2 0 0 0 .065-.154c0-.044-.022-.11-.065-.132-.066-.066-.132-.088-.22-.066-.066.022-.153.044-.22.066-.482.154-.855.066-1.097-.22a.789.789 0 0 1-.175-.662.893.893 0 0 1 .878-.705.37.37 0 0 1 .22.066.107.107 0 0 1 0 .155l-.176.352c0 .022-.022.044-.044.066h-.088a.12.12 0 0 0-.11.066.169.169 0 0 0-.044.11c0 .045.022.089.044.11.044.045.11.067.176.067a.777.777 0 0 0 .22-.044h.043c.176-.044.351-.066.527-.044.22.022.417.132.548.308a.895.895 0 0 1 .176.661.737.737 0 0 1-.307.53c-.198.175-.461.241-.724.175a.44.44 0 0 1-.176-.088.107.107 0 0 1 0-.154l.022-.066zm1.624-2.842l.79 1.851c.044.044.022.11-.022.155-.022 0-.022.022-.044.022l-.351.154c-.044.044-.11.022-.154-.022 0-.022-.022-.022-.022-.044l-.812-1.851-.439.176c-.043.022-.11 0-.153-.044v-.022l-.154-.33c-.044-.045-.022-.11.022-.155.022 0 .022-.022.044-.022l1.404-.617a.106.106 0 0 1 .154 0s.022.022.022.044l.154.353c.043.044.022.11-.022.154-.022.022-.066.022-.088.022l-.33.176zm1.053-.969l.351-.066c.044-.044.11-.022.154.022.022.022.022.066.022.088l.439 2.468c.021.066 0 .11-.066.154h-.022l-.351.11c-.044.044-.11.022-.154-.022-.022-.022-.022-.066-.022-.088l-.483-2.468c-.044-.044-.022-.11.022-.154.022-.022.066-.022.088-.022l.022-.022zm3.489.308l-.263.287c-.022.022-.044.044-.088.044-.022 0-.044-.022-.066-.044a.795.795 0 0 0-.373-.154c-.417-.044-.79.286-.834.705v.044a.764.764 0 0 0 .154.573c.131.154.329.242.526.264a.858.858 0 0 0 .395-.088c.044-.044.11-.022.154.022 0 .022.022.022.022.044l.22.33c.021.045.021.067 0 .11 0 .045-.023.067-.044.089a1.1 1.1 0 0 1-.286.11c-.153.022-.329.022-.482 0a1.43 1.43 0 0 1-1.537-1.322 1.431 1.431 0 0 1 1.317-1.542.966.966 0 0 1 .439.044c.241.022.46.088.658.22.11.066.154.132.154.176 0 .044-.022.066-.066.088zm1.47 2.556l.286.044h.065a.314.314 0 0 1 .044.133.343.343 0 0 0 .132.176c.044.044.088.044.154.044.065 0 .11-.022.153-.066a.2.2 0 0 0 0-.22c-.022-.067-.044-.155-.088-.22-.241-.441-.263-.816-.044-1.102a.761.761 0 0 1 .571-.353.886.886 0 0 1 .944.661c.022.066 0 .154-.044.22-.022.044-.088.066-.132.066l-.395-.088c-.022 0-.044-.022-.066-.044v-.088c-.022-.044-.044-.088-.088-.11-.043-.044-.087-.066-.153-.044-.044.022-.088.044-.11.088a.244.244 0 0 0 0 .176c.022.066.066.11.088.177v.066c.11.154.175.33.22.528a.75.75 0 0 1-.22.595.865.865 0 0 1-.549.375.77.77 0 0 1-.614-.154.786.786 0 0 1-.33-.661.377.377 0 0 1 0-.22c.045-.067.11-.089.176-.045v.066zm3.994.948c.197.308.263.705.176 1.057a1.433 1.433 0 0 1-1.69 1.124c-.022 0-.044 0-.066-.022-.746-.176-1.207-.947-1.031-1.696a1.413 1.413 0 0 1 1.69-1.102h.021c.373.088.68.33.878.66l.022-.021zm-.549.33c-.11-.154-.263-.286-.438-.33a.802.802 0 0 0-.966.573v.022c-.066.396.176.793.57.881a.742.742 0 0 0 .571-.088c.176-.11.33-.286.373-.485a.75.75 0 0 0-.088-.573h-.022zm1.69 3.724l-1.843.287a.742.742 0 0 1-.659-.22 1.037 1.037 0 0 1-.11-1.323.69.69 0 0 1 .505-.308l1.8-.287c.044-.044.11-.022.153.022.022.022.022.066.022.088l.044.353c.022.066 0 .11-.066.154h-.043l-1.756.309c-.088.022-.154.066-.175.154a.377.377 0 0 0 0 .22c0 .088.021.154.087.22a.199.199 0 0 0 .22 0l1.755-.264c.066-.022.11.022.132.088v.022l.066.375c.022.044 0 .11-.044.154a.067.067 0 0 1-.088 0v-.044zm-1.712 1.388l-.877-.154c-.066.022-.11-.022-.132-.066v-.088l.066-.375c-.022-.066.022-.11.066-.132h.087l2.48.44c.066 0 .11.045.11.11v.045l-.132.749a.808.808 0 0 1-.329.55.87.87 0 0 1-.658.111.902.902 0 0 1-.593-.375c-.131-.176-.175-.396-.131-.594l.043-.22zm.659.11l-.066.22c-.022.067.022.133.066.177.044.044.088.066.131.066a.17.17 0 0 0 .176-.044c.044-.022.066-.066.088-.11v-.265l-.395-.044zm-13.78 3.328l.263.132c.021 0 .043.022.065.044a.141.141 0 0 1 0 .132c0 .088.022.154.088.22a.199.199 0 0 0 .154.066c.044 0 .088-.022.131-.044a.21.21 0 0 0 .088-.22.786.786 0 0 0-.044-.22c-.153-.463-.066-.816.22-1.058a.82.82 0 0 1 .614-.22c.22.022.417.154.549.33a.888.888 0 0 1 .175.617.373.373 0 0 1-.066.22.106.106 0 0 1-.153 0l-.351-.22h-.044c-.022-.044-.022-.066 0-.11a.121.121 0 0 0-.066-.11c-.022-.044-.088-.066-.132-.066a.311.311 0 0 0-.131.044.172.172 0 0 0-.044.176c0 .066.022.154.044.22v.044c.044.177.066.353.066.53a.737.737 0 0 1-.308.528.89.89 0 0 1-.658.22.777.777 0 0 1-.549-.308.792.792 0 0 1-.175-.727c0-.088.044-.154.088-.22a.133.133 0 0 1 .175 0zm4.278 1.013l-.965 1.587a.745.745 0 0 1-.659.374 1.043 1.043 0 0 1-1.053-.75.806.806 0 0 1 .088-.594l.965-1.608c-.022-.067.022-.11.088-.133.066-.022.11.022.132.088l.285.22c.066.023.088.089.066.133 0 .022-.022.022-.022.044l-.922 1.498a.2.2 0 0 0 0 .22c.022.089.066.177.132.221.066.022.11.022.176 0a.2.2 0 0 0 .175-.088l.922-1.542c0-.067.044-.11.11-.11.065 0 .11.043.11.11l.284.176c.066.022.088.066.088.132 0 .022 0 .044-.022.044l.022-.022zm1.47 1.85l.395 1.103v.066c0 .022-.022.022-.087 0l-.44-.044c-.065 0-.13-.066-.153-.133l-.373-1.035h-.088l-.131.881c.022.066-.022.11-.066.132h-.088l-.373-.044c-.066 0-.11-.044-.11-.11v-.044l.44-2.424c-.045-.044-.023-.11.021-.154a.14.14 0 0 1 .132 0l.79.132c.22.022.417.155.548.33.132.2.176.442.132.662a.853.853 0 0 1-.527.66l-.022.023zm-.636-.638l.285.044c.11.022.242-.044.264-.176v-.044a.244.244 0 0 0 0-.177.208.208 0 0 0-.22-.088l-.22-.044-.109.485zm2.524.639l.153.947c.022.066-.022.11-.088.133h-.022l-.373.044c-.065.022-.11-.022-.131-.088v-.023l-.44-2.467c-.021-.066.023-.11.089-.133h.044l1.316-.22c.066-.022.11 0 .154.066v.044l.066.33c.022.067 0 .111-.066.155h-.044l-.812.154.066.375.834-.132c.044-.022.11 0 .153.044a.067.067 0 0 1 0 .088l.066.374c.022.067 0 .11-.066.155h-.044l-.855.154zm2.018-1.344l.725-.397c.021-.066.065-.11.131-.088.066.022.11.066.088.132l.154.309a.107.107 0 0 1 0 .154s-.022.022-.044.022l-.724.44.219.353.724-.396a.106.106 0 0 1 .154 0s.022.022.022.044l.175.33c.044.044.066.11.022.154l-.022.023-1.185.66a.106.106 0 0 1-.153 0s-.022-.022-.022-.044l-1.23-2.203c-.065-.022-.109-.066-.087-.132.022-.066.066-.11.132-.088l1.163-.661c.044-.044.11-.022.153.022.022.022.022.044.022.066l.22.33c.044.044.022.11-.022.155-.022.022-.044.022-.066.022l-.658.396.11.397zm2.721-1.587l1.141.22h.066v.133l-.285.308c-.044.067-.132.11-.22.067l-1.053-.22-.044.087.703.617c.065 0 .11.044.11.11 0 .067-.045.11-.11.11l-.22.22c.022.067-.022.111-.088.133-.065.022-.11-.022-.131-.088l-1.91-1.608c-.065 0-.11-.045-.11-.11 0-.067.045-.11.11-.11l.483-.574a.824.824 0 0 1 .57-.308.89.89 0 0 1 .66.22.885.885 0 0 1 .306.815l.022-.022zm-.9.243l.176-.22c.088-.089.066-.22-.022-.309l-.022-.022c-.044-.044-.087-.044-.153-.044s-.11.044-.154.088l-.153.22.329.287zM28.066 61.519l-.22-.22v.11a.53.53 0 0 1-.219-.22c-.066-.089-.132-.177-.22-.265a2.727 2.727 0 0 0-.394-.485.875.875 0 0 0-.571-.22h-.22l-.153-.044c-.066 0-.132 0-.22-.044l-.11-.045-.263-.11-.087-.44-.176-.507c.132-.154.22-.353.285-.551a.51.51 0 0 0-.153-.485c-.022-.022-.022-.044-.044-.066a1.042 1.042 0 0 1-.22-.22l-.065-.11c-.11-.11-.22-.243-.351-.33a1.023 1.023 0 0 0-.22-.111.582.582 0 0 0-.263-.066h-.198c-.044.044-.087.044-.153.044h-.088v-.044a.445.445 0 0 0-.11-.485c-.066-.044-.175-.088-.263-.066a.44.44 0 0 0-.176.088l-.131.066c-.044.022-.044.088 0 .132v.155l.087.286s.11.132.22.132a.514.514 0 0 1-.154.155c-.022.044-.066.11-.087.154l-.264.33c-.197.11-.373.265-.526.441a1.023 1.023 0 0 1-.22.11l-.066.066h-.044c-.022.044-.065.11-.065.177a.786.786 0 0 0-.044.22s0 .044.044 0c.022.066.065.088.131.088h.044v-.044-.066-.088h.044v.066h.066v-.066c0-.22.307-.309.483-.441a.646.646 0 0 0 .263-.22c0-.066.088-.11.154-.155a.674.674 0 0 1 .329-.22l.22.132c.087.044.175.088.262.11.066 0 .132.045.176.067-.11.066-.22.132-.307.22a1.442 1.442 0 0 0-.373.264c-.154.177 0 .309.088.441-.088-.022-.198-.044-.286-.066-.11-.022-.22-.044-.329-.044h-.066a.338.338 0 0 0-.329.22c.11.132.066.33-.066.44-.044.023-.066.045-.11.045a.342.342 0 0 1-.065.44c-.044.023-.088.045-.154.045-.044.132.022.264.132.352.022.022.022.044.044.066.087.088.175.155.285.22.11.067.22.11.351.155.11.066.22.11.33.132a.533.533 0 0 0 .263 0c.285.132.57.242.877.33l.768.31.11.043.22.066h.087l.22.176c.153.133.35.22.548.22.22-.021.44-.065.659-.11.11-.021.197-.043.307-.087.088-.067.197-.089.307-.067l-.044.11h.263l.308.089.219-.661-.307-.044zm-3.072-1.763c-.22-.088-.505-.22-.768-.264a1.904 1.904 0 0 0-.22-.353c0-.044 0-.066-.044-.088v-.066l.746-.22h.11c-.088.11-.088.264-.044.396l.351.661-.131-.066z"/>
            <path fill="#2B2F47" d="M25.125 64.273c-2.61 0-4.74-2.137-4.74-4.76 0-2.621 2.13-4.759 4.74-4.759 2.612 0 4.74 2.138 4.74 4.76.022 2.622-2.106 4.759-4.718 4.78h-.022m0-9.121c-2.391 0-4.344 1.96-4.344 4.363 0 2.401 1.953 4.362 4.344 4.362 2.392 0 4.345-1.96 4.345-4.362-.022-2.38-1.953-4.32-4.345-4.363"/>
            <path fill="#EDAE7A" d="M27.122 26.75c-1.58 3.745 1.251 8.813 1.251 8.813l-4.696 11.59-9.085-11.59s3.446-8.814 2.81-8.814"/>
            <path fill="#2B2F47" d="M28.373 35.563l-4.696 11.59-9.085-11.59s.834-2.16 1.602-4.319c1.098 1.102 4.104 2.864 10.972 1.498.307.97.702 1.917 1.185 2.82h.022z"/>
            <path fill="#000102" d="M17.752 26.44l-1.316 4.187s7.066 2.909 10.27.088l-.22-3.084-8.734-1.19z" opacity=".09"/>
            <path fill="#EDAE7A" d="M16.611 9.276s-3.993 11.943-1.01 16.988c2.985 5.046 10.03 5.31 13.32 2.292 1.844-1.675 2.327-7.822 2.458-13 .088-4.275-.11-7.888-.11-7.888S21.725 1.234 16.634 9.32l-.022-.044z"/>
            <path fill="#000102" d="M15.69 12.537s1.558-1.101 2.172-2.556c0 0 3.445 1.455 5.288-2.181 0 0 2.524 5.927 8.098 7.403l.11-4.252-8.23-5.509-5.354 2.27-1.624 2.27-.46 2.555z" opacity=".09"/>
            <path fill="#EDAE7A" d="M30.765 15.27s1.909-.551 1.711.727c-.197 1.278-.394 4.142-1.69 4.01-1.272-.154-.043-4.76-.021-4.738z"/>
            <path fill="#000102" d="M27.78 21.99s-4.388-.705-3.818-4.54l3.819 4.54z" opacity=".09"/>
            <ellipse cx="19.828" cy="13.604" fill="#1E0000" rx="1.097" ry="1" transform="rotate(-77.684 19.828 13.604)"/>
            <ellipse cx="27.342" cy="14.626" fill="#1E0000" rx="1.097" ry="1" transform="rotate(-77.684 27.342 14.626)"/>
            <path fill="#D88344" d="M23.37 14.212c.197.396 5.486 7.249 5.222 7.029-.065-.022-.373-.022-.833.044-2.326.264-4.411-1.41-4.674-3.746a3.75 3.75 0 0 1 0-.992l.285-2.335z"/>
            <path fill="#FFF" d="M22.777 22.695c.286-.022 2.612 1.036 3.094 1.763 0 0 .55 2.864-1.294 3.128-1.822.265-7.351-1.035-3.928-4.957l2.128.066z"/>
            <path fill="#1E0000" d="M21.483 10.312a5.28 5.28 0 0 1-.549.176l-.548.154-1.01.287a2.639 2.639 0 0 0-.856.44c-.11.11-.22.22-.285.353-.088.176-.132.353-.175.529a1.29 1.29 0 0 1-.132-.573c.022-.22.088-.44.22-.617a2.067 2.067 0 0 1 1.03-.75 3.467 3.467 0 0 1 1.164-.175c.395-.022.768.044 1.14.176zm8.733 3.988a9.471 9.471 0 0 0-.834-1.08 5.977 5.977 0 0 0-.943-.881 3.599 3.599 0 0 0-1.141-.529 6.769 6.769 0 0 0-1.339-.198c.44-.243.944-.33 1.427-.309.504.044.987.22 1.404.507a3.23 3.23 0 0 1 1.01 1.102c.263.44.416.925.416 1.432V14.3z"/>
            <path fill="#775D46" d="M23.48 5.75s-.395-3.745-6.1-4.935a10.008 10.008 0 0 0-1.976-.198 11.673 11.673 0 0 1-3.796-.573s.439 1.94 2.897 2.292c0 0-3.423.418-4.213 5.508 0 0 .855-2.027 1.93-1.586 0 0 1.076 3.701-2.918 5.927a12.373 12.373 0 0 0 4.586-1.168s-2.26.727-1.69 5.552c0 0 .9-4.957 3.248-3.657 0 0 8.865-5.09 8.032-7.205v.044z"/>
            <path fill="#775D46" d="M22.404 3.768s5.969-3.46 9.81 2.71c0 0 1.074 3.085 2.523 2.512 0 0-.856 1.3-3.138-.022 0 0 2.83 1.322.856 4.318 0 0-2.787-.749-9.414-6.28a24.124 24.124 0 0 1-.637-3.238z"/>
            <path fill="#000102" d="M31.752 16.085s-.658.55-.57 2.247c.088 1.697.9-2.115.57-2.247z" opacity=".09"/>
            <path fill="#775D46" d="M22.339 4.45S23.26.53 25.3.22l-2.962 4.23z"/>
            <path fill="#2B2F47" d="M28.373 35.563l-4.696 11.59-9.085-11.59s.834-2.16 1.602-4.319c1.098 1.102 4.104 2.864 10.972 1.498.307.97.702 1.917 1.185 2.82h.022z"/>
            <path fill="#EDAE7A" d="M16.15 12.824s-2.501-2.093-3.247 2.049c0 0 .22 2.313 1.821 2.732 1.624.419 1.426-4.781 1.426-4.781z"/>
            <path fill="#000102" d="M39.85 36.775l-.132 8.35 3.51.595.286-8.637s-2.567-.308-3.664-.308z" opacity=".4"/>
            <path fill="#000102" d="M15.229 13.463s-1.053-.771-1.514 1.08c0 .374.307.66.658.66h.088s.439.485-.242.573c0 0 1.098 2.138.988-2.335l.022.022z" opacity=".09"/>
            <path fill="#EDAE7A" d="M53.279 63.37l-1.229 9.188-9.063-1.543 2.414-7.623h7.9z"/>
            <path fill="#EDAE7A" d="M45.708 67.512l-4.717.485-1.273-1.433s5.069-1.278 5.332-2.049l.658 2.997z"/>
            <path fill="#ED6964" d="M44.063 80.622l.329-2.005a.779.779 0 0 1 .9-.639l1.316.22-.592 3.526-1.317-.22a.771.771 0 0 1-.636-.882z"/>
            <path fill="#ED6964" d="M46.542 78.353l-.526 3.239c-.044.198.11.396.307.44.197.044.395-.11.439-.308l.526-3.24c.044-.198-.11-.396-.307-.44-.22-.044-.417.088-.439.309z"/>
            <path fill="#F4F4F4" d="M55.188 78.507a3.408 3.408 0 0 0-.9-.33l-2.852-.485a2.675 2.675 0 0 0-1.492.176l-1.778.771a1.18 1.18 0 0 1-.548.066l-.373-.066-.483 2.886.373.067c.197.022.373.11.504.242l1.427 1.3c.373.352.856.573 1.338.66l2.853.486c.33.044.636.044.966-.022l.395-.089a2.678 2.678 0 0 1 1.601.177c1.01.44 2.085.77 3.182.947l.351.066a2.136 2.136 0 0 0 2.458-1.762l.307-1.873a2.143 2.143 0 0 0-1.755-2.468l-.351-.066a13.924 13.924 0 0 0-3.314-.132 2.553 2.553 0 0 1-1.558-.353l-.35-.198z"/>
            <path fill="#ED6964" d="M55.122 78.315l-1.024 6.147-4.107-.684 1.024-6.148z"/>
            <path fill="#EDAE7A" d="M22.031 69.385h7.9l2.414 7.623-9.063 1.543-1.229-9.188z"/>
            <path fill="#ED6964" d="M69.78 79.983l-1.097-1.697c-.241-.352-.724-.462-1.075-.22l-1.119.727 1.953 2.997 1.12-.727a.805.805 0 0 0 .219-1.08z"/>
            <path fill="#ED6964" d="M66.072 78.793c-.175.11-.22.353-.11.529l1.778 2.732c.11.177.35.22.526.11.176-.11.22-.352.11-.528L66.6 78.903c-.11-.176-.351-.242-.527-.11z"/>
            <path fill="#F4F4F4" d="M58.721 82.517c.197-.264.417-.485.702-.661l2.414-1.587c.417-.286.922-.44 1.426-.44l1.931-.022c.198 0 .373-.066.549-.154l.307-.199 1.602 2.446-.307.198a1.35 1.35 0 0 0-.373.419l-.79 1.763c-.22.462-.549.859-.966 1.145l-2.413 1.587c-.264.176-.571.308-.878.374l-.395.089a2.584 2.584 0 0 0-1.383.793 13.935 13.935 0 0 1-2.523 2.16l-.285.197a2.147 2.147 0 0 1-2.963-.617l-1.031-1.586a2.166 2.166 0 0 1 .614-2.975l.286-.198a12.493 12.493 0 0 1 2.984-1.454 2.662 2.662 0 0 0 1.295-.948l.197-.33z"/>
            <path fill="#ED6964" d="M62.206 80.033l3.407 5.218-3.487 2.276-3.406-5.218z"/>
        </g>
    </g>
</svg>
