<svg xmlns="http://www.w3.org/2000/svg" width="92" height="92" viewBox="0 0 92 92">
    <g fill="none" fill-rule="nonzero">
        <path fill="#EDAE7A" d="M79.758 24.16l-6.167-8.84 4.934-3.659 4.911 1.83z"/>
        <path fill="#604634" d="M26.721 22.788s-.594 2.286-2.136 2.286c0 0 2.753.784 3.017-.805.265-1.59-1.696 1.676-.594 4.29 0 0 .99-2.94 1.696-2.875 0 0-1.476 4.18 1.387 7.664 0 0 1.322-1.088 1.542-2.177 0 0 .22 2.177 1.542 3.484l1.541-2.395s-4.118-11.105-7.995-9.472zm19.845-.893s1.19 2.003 2.423 1.59c0 0-1.916 1.48-2.643.043-.727-1.437 1.872 1.089 1.85 3.876 0 0-1.718-2.504-2.269-2.264 0 0 2.511 3.57 1.41 7.62 0 0-1.388-.696-1.916-1.654 0 0 .55 2.112-.066 3.701l-1.983-1.872s-.44-11.584 3.172-11.062l.022.022z"/>
        <path fill="#2B2F47" d="M59.561 39.554s2.423-2.264 17.004-1.633c0 0-1.168 6.01-16.079 8.187l-.925-6.554z"/>
        <path fill="#ED6964" d="M29.87 40.97l-10.307 3.919-4.405 5.313 7.885 5.313 3.172-.654 5.374 24.605h21.849l-.947-19.248.947-3.789v-6.532l6.652-2.83-1.256-8.776-13.722 2.787-5.506 12.346z"/>
        <path fill="#2B2F47" d="M15.665 51.53C15.356 52.183 3 75.046 3 75.046s13.7-5.88 18.281-20.315l-5.616-3.201z"/>
        <path fill="#2B2F47" d="M3 75.024s7.93-5.944 18.37 2.83c0 0 2.202 2.831-5.727 2.483C7.713 79.99 3 75.024 3 75.024z"/>
        <path fill="#EDAE7A" d="M21.37 77.833h7.928l2.423 7.534-9.096 1.524z"/>
        <path fill="#000102" d="M15.665 51.53l-1.322 2.482 6.013 3.136 1.013-2.504-5.726-3.158z" opacity=".33"/>
        <path fill="#000102" d="M26.215 54.905l2.533-.653 2.819 26.303-5.374-25.694z" opacity=".09"/>
        <path fill="#2B2F47" d="M34.364 66.01l.881-.11c.044-.043.11-.021.154.023.022.021.022.065.022.087l.066.348c.022.065 0 .109-.066.152h-.044l-2.489.436c-.044.022-.11 0-.154-.044a.066.066 0 0 1 0-.087l-.11-.74a.749.749 0 0 1 .132-.61.807.807 0 0 1 .595-.348c.22-.044.462 0 .66.13.199.131.331.327.353.545v.218zm-.617.13l-.044-.217a.164.164 0 0 0-.11-.153c-.044-.043-.11-.043-.176-.043-.066.021-.132.043-.154.108-.022.044-.044.088-.044.131l.044.218.484-.044zm.97-2.003l.088-.697c-.022-.065.022-.109.066-.13h.088l.374.043c.066-.022.11.022.132.066v.087l-.154 1.197c0 .066-.044.11-.11.11h-.044l-2.51-.284c-.067.022-.111-.022-.133-.065v-.087l.044-.37c0-.066.044-.11.11-.11h.044l2.004.24zm.66-1.938l.287.327c.066.065.066.152 0 .218l-.22.348c-.023.065-.067.065-.11.043h-.045l-1.718-2.177a.131.131 0 0 1 0-.174l.11-.218a.201.201 0 0 1 .154-.065l2.732.37h.044c.066.044.066.087 0 .152l-.177.37c-.022.066-.11.11-.176.088h-.44l-.44.718zm-.727-.936l.33.435.221-.37-.55-.065zm1.873-.85l.132-.26.044-.044a.142.142 0 0 1 .132 0 .284.284 0 0 0 .22-.087.197.197 0 0 0 .066-.153c0-.043-.022-.109-.066-.13-.066-.066-.132-.087-.22-.066-.066.022-.154.044-.22.066-.485.152-.86.065-1.102-.218a.771.771 0 0 1-.176-.653.894.894 0 0 1 .881-.697c.088 0 .154.022.22.065a.104.104 0 0 1 0 .153l-.176.348c0 .022-.022.044-.044.065h-.088a.121.121 0 0 0-.11.066.165.165 0 0 0-.044.109c0 .043.022.087.044.108.044.044.11.066.176.066a.79.79 0 0 0 .22-.044h.044c.177-.043.353-.065.53-.043.22.021.418.13.55.305a.875.875 0 0 1 .176.653.726.726 0 0 1-.308.522.796.796 0 0 1-.727.175.445.445 0 0 1-.176-.088.104.104 0 0 1 0-.152l.022-.065zm1.63-2.808l.792 1.829c.044.043.022.109-.022.152-.022 0-.022.022-.044.022l-.352.152c-.044.044-.11.022-.154-.021 0-.022-.022-.022-.022-.044l-.815-1.829-.44.174c-.045.022-.11 0-.155-.043v-.022l-.154-.327c-.044-.043-.022-.108.022-.152.022 0 .022-.022.044-.022l1.41-.61a.107.107 0 0 1 .154 0s.022.022.022.044l.154.348c.044.044.022.11-.022.153-.022.022-.066.022-.088.022l-.33.174zm1.057-.958l.352-.066c.044-.043.11-.021.154.022.022.022.022.066.022.087l.44 2.439c.023.065 0 .109-.065.152h-.022l-.353.11c-.044.043-.11.021-.154-.022-.022-.022-.022-.066-.022-.088l-.485-2.438c-.044-.044-.022-.11.022-.153.023-.021.067-.021.089-.021l.022-.022zm3.502.305l-.265.283c-.022.021-.044.043-.088.043-.022 0-.044-.022-.066-.043a.805.805 0 0 0-.374-.153c-.419-.043-.793.283-.837.697v.044a.746.746 0 0 0 .154.566.82.82 0 0 0 .529.261.872.872 0 0 0 .396-.087c.044-.044.11-.022.154.022 0 .021.022.021.022.043l.22.327c.022.043.022.065 0 .109 0 .043-.022.065-.044.087-.088.043-.176.087-.286.109-.154.021-.33.021-.484 0a1.427 1.427 0 0 1-1.542-1.307c-.066-.784.528-1.459 1.321-1.524a.984.984 0 0 1 .44.044c.243.021.463.087.662.217.11.066.154.131.154.175 0 .043-.022.065-.066.087zm1.475 2.525l.287.044h.066a.307.307 0 0 1 .044.13c.022.066.066.131.132.175.044.043.088.043.154.043s.11-.021.154-.065a.196.196 0 0 0 0-.218c-.022-.065-.044-.152-.088-.217-.242-.436-.264-.806-.044-1.09a.765.765 0 0 1 .573-.348c.44-.043.837.24.947.654.022.065 0 .152-.044.217-.022.044-.088.066-.132.066l-.397-.087c-.022 0-.044-.022-.066-.044v-.087c-.022-.044-.044-.087-.088-.109-.044-.043-.088-.065-.154-.043-.044.021-.088.043-.11.087a.238.238 0 0 0 0 .174c.022.065.066.109.088.174v.065c.11.153.176.327.22.523a.734.734 0 0 1-.22.588.868.868 0 0 1-.55.37.782.782 0 0 1-.617-.152.773.773 0 0 1-.33-.654.367.367 0 0 1 0-.217c.043-.066.11-.087.175-.044v.065zm4.009.937c.198.305.264.696.176 1.045a1.437 1.437 0 0 1-1.696 1.11c-.022 0-.044 0-.066-.021a1.397 1.397 0 0 1-1.035-1.677 1.418 1.418 0 0 1 1.696-1.089h.022c.374.087.683.327.88.653l.023-.021zm-.55.326c-.11-.152-.265-.283-.441-.326a.806.806 0 0 0-.97.566v.022a.758.758 0 0 0 .573.87.755.755 0 0 0 .573-.087c.176-.108.33-.283.374-.479a.732.732 0 0 0-.088-.566h-.022zm1.695 3.68l-1.85.283a.752.752 0 0 1-.66-.218 1.013 1.013 0 0 1-.11-1.306.695.695 0 0 1 .506-.305l1.806-.283c.044-.043.11-.022.154.022.022.022.022.065.022.087l.044.348c.022.066 0 .11-.066.153h-.044l-1.762.305c-.088.021-.154.065-.176.152a.367.367 0 0 0 0 .218c0 .087.022.152.088.218a.202.202 0 0 0 .22 0l1.762-.262c.066-.022.11.022.132.087v.022l.066.37c.022.044 0 .11-.044.153a.068.068 0 0 1-.088 0v-.044zm-1.718 1.372l-.88-.152c-.067.021-.11-.022-.133-.066v-.087l.066-.37c-.022-.065.022-.109.066-.13h.088l2.49.435c.065 0 .11.043.11.109v.043l-.133.74a.797.797 0 0 1-.33.545.885.885 0 0 1-.66.109.907.907 0 0 1-.596-.37.718.718 0 0 1-.132-.588l.044-.218zm.661.109l-.066.218c-.022.065.022.13.066.174.044.043.088.065.132.065.066.022.132 0 .176-.043.044-.022.066-.066.089-.11v-.26l-.397-.044zm-13.832 3.288l.264.13c.022 0 .045.022.067.044a.137.137 0 0 1 0 .13c0 .088.022.153.088.218a.201.201 0 0 0 .154.066c.044 0 .088-.022.132-.044a.206.206 0 0 0 .088-.218.766.766 0 0 0-.044-.217c-.154-.458-.066-.806.22-1.046a.83.83 0 0 1 .617-.217.81.81 0 0 1 .55.326.868.868 0 0 1 .177.61.365.365 0 0 1-.066.218.107.107 0 0 1-.154 0l-.353-.218h-.044c-.022-.044-.022-.065 0-.109a.12.12 0 0 0-.066-.109c-.022-.043-.088-.065-.132-.065-.044 0-.088.022-.132.043-.044.044-.066.11-.044.175 0 .065.022.152.044.217v.044c.044.174.066.348.066.523a.726.726 0 0 1-.309.522.902.902 0 0 1-.66.218.783.783 0 0 1-.55-.305.774.774 0 0 1-.177-.719c0-.087.044-.152.088-.217a.135.135 0 0 1 .176 0zm4.295 1.001l-.969 1.568a.75.75 0 0 1-.66.37 1.045 1.045 0 0 1-1.058-.74.786.786 0 0 1 .088-.588l.97-1.59c-.023-.065.021-.108.087-.13.066-.022.11.022.132.087l.287.218c.066.021.088.087.066.13 0 .022-.022.022-.022.044l-.925 1.48a.196.196 0 0 0 0 .218c.022.087.066.174.132.218.066.022.11.022.176 0a.201.201 0 0 0 .176-.087l.925-1.524c0-.066.044-.11.11-.11.067 0 .11.044.11.11l.287.174c.066.022.088.065.088.13 0 .022 0 .044-.022.044l.022-.022zm1.476 1.83l.396 1.088v.065c0 .022-.022.022-.088 0l-.44-.043c-.066 0-.133-.065-.155-.13l-.374-1.024h-.088l-.132.87c.022.066-.022.11-.066.131h-.088l-.375-.043c-.066 0-.11-.044-.11-.109v-.044l.44-2.395c-.044-.043-.021-.109.023-.152a.142.142 0 0 1 .132 0l.793.13a.81.81 0 0 1 .55.327.87.87 0 0 1 .132.653.846.846 0 0 1-.528.654l-.022.021zm-.639-.632l.286.043c.11.022.243-.043.265-.174v-.043a.238.238 0 0 0 0-.174.21.21 0 0 0-.22-.088l-.22-.043-.11.479zm2.533.631l.154.937c.022.065-.022.109-.088.13h-.022l-.374.044c-.066.022-.11-.022-.133-.087v-.022l-.44-2.439c-.022-.065.022-.109.088-.13h.044l1.322-.218c.066-.022.11 0 .154.065v.044l.066.326c.022.066 0 .11-.066.153h-.044l-.815.152.066.37.837-.13c.044-.022.11 0 .154.043a.066.066 0 0 1 0 .087l.066.37c.022.066 0 .11-.066.153h-.044l-.859.152zm2.026-1.328l.727-.392c.022-.065.066-.109.132-.087.066.022.11.065.088.13l.155.306a.104.104 0 0 1 0 .152s-.022.022-.044.022l-.727.435.22.349.727-.392a.107.107 0 0 1 .154 0s.022.021.022.043l.176.327c.044.043.066.109.022.152l-.022.022-1.19.653a.107.107 0 0 1-.153 0s-.022-.021-.022-.043l-1.234-2.178c-.066-.021-.11-.065-.088-.13.022-.066.066-.11.132-.087l1.168-.654c.044-.043.11-.021.154.022.022.022.022.044.022.065l.22.327c.044.044.022.109-.022.152-.022.022-.044.022-.066.022l-.66.392.11.392zm2.731-1.568l1.146.218h.066v.13l-.287.306c-.044.065-.132.108-.22.065l-1.057-.218-.044.087.705.61c.066 0 .11.044.11.109s-.044.109-.11.109l-.22.217c.022.066-.022.11-.089.131-.066.022-.11-.022-.132-.087l-1.916-1.59c-.066 0-.11-.043-.11-.108 0-.066.044-.11.11-.11l.485-.565a.83.83 0 0 1 .572-.305.902.902 0 0 1 .661.218c.242.195.352.5.308.805l.022-.022zm-.903.24l.177-.218c.088-.087.066-.218-.022-.305l-.022-.021c-.045-.044-.089-.044-.155-.044s-.11.044-.154.087l-.154.218.33.283zM43.967 66.706l-.22-.217v.109a.528.528 0 0 1-.22-.218c-.066-.087-.133-.174-.22-.261a2.704 2.704 0 0 0-.397-.48.886.886 0 0 0-.573-.217h-.22l-.154-.044c-.066 0-.132 0-.22-.043l-.11-.044-.265-.109-.088-.435-.176-.501c.132-.152.22-.348.286-.544a.5.5 0 0 0-.154-.48c-.022-.021-.022-.043-.044-.065a1.038 1.038 0 0 1-.22-.217l-.066-.11c-.11-.108-.22-.239-.353-.326a1.034 1.034 0 0 0-.22-.109.592.592 0 0 0-.264-.065h-.199c-.044.043-.088.043-.154.043h-.088v-.043a.435.435 0 0 0-.11-.48c-.066-.043-.176-.086-.264-.065a.445.445 0 0 0-.177.088l-.132.065c-.044.022-.044.087 0 .13v.153l.088.283s.11.13.22.13a.512.512 0 0 1-.154.153c-.022.044-.066.109-.088.153l-.264.326a2.008 2.008 0 0 0-.529.436 1.034 1.034 0 0 1-.22.108l-.066.066h-.044c-.022.043-.066.109-.066.174a.766.766 0 0 0-.044.218s0 .043.044 0c.022.065.066.087.132.087h.044v-.044-.065-.087h.044v.065h.066v-.065c0-.218.309-.305.485-.436a.646.646 0 0 0 .264-.217c0-.066.088-.11.154-.153a.677.677 0 0 1 .33-.218l.221.131c.088.044.176.087.264.109.066 0 .132.044.177.065-.11.066-.22.131-.309.218a1.447 1.447 0 0 0-.374.261c-.154.175 0 .305.088.436-.088-.022-.198-.044-.286-.065-.11-.022-.22-.044-.33-.044h-.067c-.154 0-.286.087-.33.218.11.13.066.326-.066.435-.044.022-.066.044-.11.044a.334.334 0 0 1-.067.435c-.044.022-.088.044-.154.044-.044.13.022.261.132.348.022.022.022.044.044.065.089.088.177.153.287.218.11.066.22.11.352.153.11.065.22.109.33.13a.543.543 0 0 0 .265 0c.286.13.573.24.88.327l.772.305.11.043.22.066h.088l.22.174c.155.13.353.218.551.218.22-.022.44-.066.66-.11.111-.021.2-.043.31-.086a.386.386 0 0 1 .308-.066l-.044.11h.264l.308.086.22-.653-.308-.044zm-3.083-1.741c-.22-.088-.507-.218-.771-.262a1.877 1.877 0 0 0-.22-.348c0-.044 0-.065-.045-.087v-.066l.75-.217h.11c-.089.109-.089.261-.045.392l.353.653-.132-.065z"/>
        <path fill="#2B2F47" d="M41.016 69.428c-2.621 0-4.758-2.112-4.758-4.703s2.137-4.703 4.758-4.703c2.62 0 4.757 2.112 4.757 4.703.022 2.591-2.114 4.703-4.735 4.725h-.022m0-9.015c-2.401 0-4.361 1.938-4.361 4.312 0 2.373 1.96 4.311 4.36 4.311 2.401 0 4.362-1.938 4.362-4.311-.044-2.374-1.96-4.268-4.361-4.312"/>
        <path fill="#EDAE7A" d="M43.02 32.347c-1.586 3.701 1.255 8.71 1.255 8.71L39.562 52.51l-9.118-11.454s3.458-8.71 2.819-8.71"/>
        <path fill="#2B2F47" d="M44.275 41.056L39.562 52.51l-9.118-11.454s.837-2.133 1.607-4.267c1.102 1.088 4.12 2.83 11.013 1.48.308.958.705 1.895 1.19 2.787h.021z"/>
        <path fill="#000102" d="M33.615 32.042l-1.321 4.137s7.092 2.874 10.308.087l-.22-3.048-8.767-1.176z" opacity=".09"/>
        <path fill="#EDAE7A" d="M28.858 17.736s.947 12.412 5.66 15.852c4.714 3.44 11.343.958 13.215-3.048 1.058-2.243-.88-8.013-2.775-12.782-1.586-3.92-3.171-7.142-3.171-7.142S30.466 8.44 28.88 17.758l-.022-.022z"/>
        <path fill="#000102" d="M29.276 21.068s1.013-1.612 1.013-3.158c0 0 3.745 0 4.053-4.028 0 0 4.625 4.42 10.352 3.615l-1.542-3.92-9.757-1.85-4.075 4.137-.616 2.7.572 2.504z" opacity=".09"/>
        <path fill="#EDAE7A" d="M44.275 17.736s1.542-1.24 1.873 0c.33 1.241 1.233 3.92 0 4.29-1.234.37-1.895-4.29-1.895-4.29h.022z"/>
        <path fill="#000102" d="M44.121 25.009s-4.339 1.045-5.286-2.657l5.286 2.657z" opacity=".09"/>
        <ellipse cx="33.525" cy="20.44" fill="#1E0000" rx="1.101" ry="1" transform="rotate(-100.55 33.525 20.44)"/>
        <ellipse cx="40.86" cy="18.479" fill="#1E0000" rx="1.101" ry="1" transform="rotate(-100.55 40.86 18.48)"/>
        <path fill="#D88344" d="M36.589 20.393c.374.217 8.612 2.896 8.26 2.874-.067.022-.331.196-.662.479a4.289 4.289 0 0 1-5.99-.48 4.176 4.176 0 0 1-.551-.826l-1.057-2.047z"/>
        <path fill="#1E0000" d="M34.452 18.477c-.198-.022-.374-.066-.573-.11l-.55-.13-1.013-.24a2.898 2.898 0 0 0-.97-.021 1.009 1.009 0 0 0-.418.174 2.14 2.14 0 0 0-.396.37c0-.196.066-.392.154-.566.132-.196.286-.348.484-.435a1.98 1.98 0 0 1 1.278-.153c.396.065.77.218 1.101.414.33.174.639.414.903.697zm9.075-2.635c-.463-.044-.903-.065-1.366-.044-.44 0-.859.066-1.277.175a4.524 4.524 0 0 0-1.146.522 6.575 6.575 0 0 0-1.013.893 2.711 2.711 0 0 1 1.982-2.047c.485-.13.991-.152 1.498-.087s.97.261 1.366.566l-.044.022z"/>
        <path fill="#775D46" d="M33.835 11.879s-1.828-3.266-7.554-2.134c-.661.13-1.278.327-1.894.588a11.68 11.68 0 0 1-3.745.936s1.168 1.59 3.568.98c0 0-2.995 1.699-1.762 6.641 0 0 0-2.177 1.168-2.177 0 0 2.422 2.961-.397 6.532a12.647 12.647 0 0 0 3.789-2.83s-1.806 1.524.594 5.704c0 0-1.101-4.855 1.586-4.572 0 0 6.211-8.057 4.647-9.668z"/>
        <path fill="#775D46" d="M32.073 10.485s4.185-5.443 10.132-1.306c0 0 2.203 2.395 3.304 1.306 0 0-.286 1.525-2.907 1.198 0 0 3.127.109 2.466 3.593 0 0-2.863.392-11.144-2.09-.683-.85-1.3-1.764-1.85-2.7z"/>
        <path fill="#000102" d="M45.509 18.106s-.397.763.352 2.265c.75 1.502 0-2.265-.352-2.265z" opacity=".09"/>
        <path fill="#775D46" d="M32.294 11.139s-.661-3.92 1.1-5.008l-1.1 5.008z"/>
        <path fill="#2B2F47" d="M44.275 41.056L39.562 52.51l-9.118-11.454s.837-2.133 1.607-4.267c1.102 1.088 4.12 2.83 11.013 1.48.308.958.705 1.895 1.19 2.787h.021z"/>
        <path fill="#EDAE7A" d="M29.805 21.155s-3.128-.936-2.203 3.114c0 0 1.102 2.025 2.753 1.785 1.652-.24-.55-4.9-.55-4.9z"/>
        <path fill="#000102" d="M59.561 39.554l.925 6.641 2.907-.522-.88-7.186s-2.115.436-2.952 1.089v-.022z" opacity=".4"/>
        <path fill="#000102" d="M29.21 22.091s-1.277-.305-.969 1.568c.132.326.529.479.859.348.022-.022.044-.022.088-.043 0 0 .595.283 0 .61 0 0 1.85 1.524 0-2.505l.022.022z" opacity=".09"/>
        <path fill="#2B2F47" d="M80.397 22.244s1.652 8.34-4.515 16.896c0 0-5.903 5.074 2.423-16.744l2.092-.152z"/>
        <path fill="#EDAE7A" d="M80.97 20.502l3.392-3.354-1.234-1.829-2.467 2.744z"/>
        <path fill="#F26F69" d="M74.142 23.55v-.544c-.022-.349-.044-.828-.154-1.416a8.62 8.62 0 0 0-.199-.914 8.545 8.545 0 0 0-.33-.98 5.916 5.916 0 0 0-.507-.98 3.575 3.575 0 0 0-.308-.479 6.37 6.37 0 0 0-.352-.457l-.199-.218-.198-.196a6.38 6.38 0 0 0-.418-.37c-.132-.13-.309-.218-.44-.348-.155-.11-.31-.196-.463-.305l-.463-.262c-.154-.087-.308-.152-.462-.217-.155-.066-.309-.13-.463-.174a3.523 3.523 0 0 0-.44-.153c-.287-.087-.551-.174-.771-.218-.243-.065-.44-.109-.617-.152-.352-.065-.529-.109-.529-.109s.199 0 .551.022c.176 0 .396.022.639.065.11.022.242.022.396.065.132.022.287.066.419.088.154.021.308.065.462.108.154.044.33.088.485.153.154.065.33.13.506.196.177.087.33.152.507.24.154.086.33.195.507.304.154.11.33.218.484.349l.463.392c.066.065.154.13.22.217l.198.24c.132.152.242.326.375.479.11.174.22.326.33.522.198.349.352.719.484 1.067.243.719.375 1.416.419 2.004a7.406 7.406 0 0 1-.022 1.437c-.066.348-.11.544-.11.544zM69.869 10.573s.198.065.528.152.815.196 1.41.283c.286.044.617.065.947.087.33.022.683 0 1.057-.022.353-.043.727-.087 1.102-.196.176-.043.374-.108.55-.152.176-.065.375-.13.529-.218l.264-.109.265-.13c.176-.087.33-.196.484-.305l.463-.327c.154-.109.286-.24.418-.348l.375-.37c.132-.13.242-.262.352-.392.11-.13.198-.261.308-.392.088-.13.198-.24.265-.37.176-.24.33-.458.44-.675.132-.196.242-.392.308-.545.177-.304.265-.479.265-.479l-.176.523a8.442 8.442 0 0 1-.243.588c-.044.109-.11.24-.176.348-.066.13-.132.24-.198.37a3.78 3.78 0 0 1-.242.392c-.089.13-.177.283-.287.414-.11.13-.22.283-.33.414-.132.13-.242.283-.375.413-.132.131-.286.262-.44.392-.154.131-.308.262-.485.37-.176.11-.33.24-.528.327l-.265.153-.286.13c-.176.087-.396.153-.573.218-.198.065-.396.13-.594.152a7.47 7.47 0 0 1-1.168.153c-.374.022-.748 0-1.1-.022a10.08 10.08 0 0 1-.97-.152 8.076 8.076 0 0 1-1.388-.436c-.33-.152-.506-.24-.506-.24zM83.392 6.065s-.066.196-.132.523a9.126 9.126 0 0 0-.176 1.415c-.022.283-.022.61-.022.937 0 .326.044.675.11 1.045.066.348.154.718.264 1.067.045.174.133.348.199.522.088.174.154.349.242.523l.132.261.154.24c.088.174.22.304.33.457.11.152.243.283.375.435l.397.392c.132.11.264.24.396.349.132.109.286.217.418.304.133.11.287.175.397.284.132.087.264.174.396.24.265.151.485.282.705.391.22.109.397.196.573.261.308.153.506.218.506.218s-.198-.044-.528-.152a4.724 4.724 0 0 1-.595-.196c-.11-.044-.242-.087-.374-.131-.132-.065-.265-.109-.397-.174-.132-.066-.286-.13-.418-.218-.132-.087-.287-.152-.44-.261a3.148 3.148 0 0 1-.441-.305 6.157 6.157 0 0 1-.44-.348c-.133-.131-.287-.262-.42-.392-.131-.153-.286-.283-.396-.436a2.445 2.445 0 0 1-.352-.479l-.176-.261-.154-.261c-.11-.175-.177-.37-.265-.545-.066-.196-.154-.37-.198-.566a5.682 5.682 0 0 1-.242-1.154 6.086 6.086 0 0 1-.044-1.089c0-.348.044-.675.088-.98.088-.587.242-1.066.352-1.415.088-.326.176-.5.176-.5zM89.824 17.083s-.198.022-.55.065c-.353.066-.838.153-1.388.327a9.186 9.186 0 0 0-.903.327c-.309.13-.617.283-.948.457a6.312 6.312 0 0 0-.925.631c-.154.11-.286.24-.44.37-.132.131-.286.262-.397.414l-.198.218-.176.24c-.11.152-.22.304-.33.478-.11.153-.177.327-.287.48-.088.174-.154.326-.242.5-.066.175-.132.327-.176.501-.066.174-.11.327-.154.5-.044.153-.066.328-.11.48-.045.152-.067.305-.089.457-.044.283-.088.566-.11.784-.022.24-.044.457-.066.61-.022.348-.044.544-.044.544s-.022-.196-.044-.544c-.022-.174-.022-.392-.022-.632v-.392c0-.13.022-.283.022-.435 0-.153.022-.305.044-.457.022-.153.044-.327.088-.501s.066-.349.132-.523c.044-.174.11-.348.177-.522.066-.175.132-.349.22-.545.088-.174.176-.348.286-.522.11-.174.198-.349.33-.501l.177-.24.198-.24c.132-.152.286-.304.44-.435.155-.13.309-.26.463-.392.308-.26.66-.457.991-.631a7.902 7.902 0 0 1 1.013-.435c.33-.11.661-.196.947-.262a6.98 6.98 0 0 1 1.454-.174c.419-.022.617 0 .617 0z"/>
        <path fill="#EDAE7A" d="M28.615 78.835c.265.762 5.353 2.025 5.353 2.025l-1.278 1.415-4.735-.479.66-2.961z"/>
        <path fill="#7F7F7F" d="M38.35 29.603c.199.153.397.262.617.37.22.11.44.196.661.262.463.13.925.24 1.388.305.484.087.947.13 1.431.152.22.043.44.043.705.043h.727l-.727.066h-.727a15.893 15.893 0 0 1-1.431-.13 7.252 7.252 0 0 1-1.388-.393 3.507 3.507 0 0 1-1.255-.675z"/>
    </g>
</svg>
