<svg xmlns="http://www.w3.org/2000/svg" width="54" height="54" viewBox="0 0 54 54">
    <g fill="none" fill-rule="evenodd">
        <path fill="#F1F1F1" d="M-161-308h375v667h-375z"/>
        <g transform="translate(-93 -94)">
            <circle cx="120" cy="120" r="120" fill="#DEDEDE"/>
            <path fill="#2B2F47" d="M142 138.684c0 2.554-.732 4.746-2.197 6.574-1.465 1.828-3.229 2.742-5.291 2.742h-30.024c-2.062 0-3.826-.914-5.29-2.742-1.466-1.828-2.198-4.02-2.198-6.574 0-1.993.1-3.873.299-5.643.199-1.77.568-3.55 1.107-5.344.54-1.793 1.225-3.328 2.057-4.605.832-1.278 1.933-2.32 3.305-3.13 1.37-.808 2.947-1.212 4.728-1.212 3.07 3 6.738 4.5 11.004 4.5 4.266 0 7.934-1.5 11.004-4.5 1.781 0 3.357.404 4.728 1.213 1.372.808 2.473 1.851 3.305 3.129.832 1.277 1.518 2.812 2.057 4.605.539 1.793.908 3.574 1.107 5.344.2 1.77.299 3.65.299 5.643zm-12.973-40.711c2.649 2.625 3.973 5.8 3.973 9.527 0 3.727-1.318 6.908-3.955 9.545-2.637 2.637-5.818 3.955-9.545 3.955-3.727 0-6.908-1.318-9.545-3.955-2.637-2.637-3.955-5.818-3.955-9.545 0-3.727 1.318-6.908 3.955-9.545C112.592 95.318 115.773 94 119.5 94c3.727 0 6.902 1.324 9.527 3.973z"/>
        </g>
    </g>
</svg>
